<svg width="18" height="18" viewBox="0 0 18 18" fill="none" xmlns="http://www.w3.org/2000/svg">
<g clip-path="url(#clip0_2409_61)">
<path d="M17.9756 9.18697C17.9756 8.44803 17.9145 7.9088 17.782 7.34961H9.17188V10.6848H14.2259C14.124 11.5137 13.5737 12.7619 12.351 13.6006L12.3338 13.7123L15.0562 15.7791L15.2448 15.7975C16.977 14.2298 17.9756 11.923 17.9756 9.18697Z" fill="#4285F4"/>
<path d="M9.17089 17.9744C11.6469 17.9744 13.7255 17.1755 15.2438 15.7975L12.35 13.6005C11.5756 14.1298 10.5362 14.4993 9.17089 14.4993C6.74583 14.4993 4.68754 12.9315 3.95383 10.7646L3.84629 10.7736L1.01554 12.9205L0.978516 13.0214C2.48655 15.9572 5.58417 17.9744 9.17089 17.9744Z" fill="#34A853"/>
<path d="M3.95447 10.7647C3.76087 10.2055 3.64883 9.60628 3.64883 8.98719C3.64883 8.36804 3.76087 7.76892 3.94428 7.20973L3.93915 7.09058L1.07292 4.90918L0.979146 4.9529C0.357613 6.1712 0.000976562 7.53923 0.000976562 8.98719C0.000976562 10.4351 0.357613 11.8031 0.979146 13.0214L3.95447 10.7647Z" fill="#FBBC05"/>
<path d="M9.17095 3.47501C10.893 3.47501 12.0545 4.20397 12.7169 4.81314L15.305 2.33666C13.7155 0.888734 11.647 0 9.17095 0C5.58417 0 2.48655 2.0171 0.978516 4.95288L3.94366 7.20969C4.68757 5.04279 6.74583 3.47501 9.17095 3.47501Z" fill="#EB4335"/>
</g>
<defs>
<clipPath id="clip0_2409_61">
<rect width="18" height="17.9743" fill="white"/>
</clipPath>
</defs>
</svg>
